<svg width="43" height="38" viewBox="0 0 43 38" fill="none" xmlns="http://www.w3.org/2000/svg">
<path d="M1.23292 1.11488C0.966836 1.18875 0.811016 1.46433 0.884881 1.73041C0.958747 1.99649 1.23433 2.15231 1.50041 2.07844L1.23292 1.11488ZM38.112 36.795C38.2626 37.0264 38.5723 37.092 38.8038 36.9415L42.5759 34.4878C42.8074 34.3372 42.873 34.0275 42.7225 33.796C42.5719 33.5645 42.2622 33.499 42.0307 33.6495L38.6776 35.8306L36.4966 32.4775C36.346 32.246 36.0363 32.1804 35.8048 32.331C35.5733 32.4816 35.5077 32.7913 35.6583 33.0228L38.112 36.795ZM1.36666 1.59666C1.50041 2.07844 1.50026 2.07848 1.50017 2.07851C1.50022 2.07849 1.50019 2.0785 1.50029 2.07847C1.50049 2.07842 1.50093 2.0783 1.50161 2.07811C1.50296 2.07774 1.50527 2.07711 1.50851 2.07624C1.515 2.07448 1.52526 2.07174 1.53921 2.06808C1.56711 2.06076 1.60977 2.04978 1.66662 2.03576C1.78032 2.00773 1.95071 1.96755 2.17312 1.92018C2.61801 1.82543 3.27068 1.70199 4.09384 1.58941C5.74082 1.36416 8.06634 1.18294 10.7732 1.3603C16.1861 1.71496 23.1066 3.50125 29.1939 9.22185L29.8787 8.49313C23.5779 2.57183 16.4136 0.727716 10.8386 0.362437C8.05164 0.179828 5.65752 0.366247 3.95834 0.598637C3.10841 0.714877 2.43137 0.842755 1.96482 0.942119C1.73151 0.991806 1.55075 1.03438 1.42722 1.06484C1.36546 1.08007 1.31799 1.09227 1.28541 1.10082C1.26913 1.10509 1.25656 1.10845 1.24778 1.11082C1.2434 1.11201 1.23996 1.11295 1.23748 1.11363C1.23624 1.11397 1.23524 1.11424 1.23447 1.11445C1.23409 1.11456 1.23371 1.11466 1.23351 1.11472C1.23319 1.11481 1.23292 1.11488 1.36666 1.59666ZM29.1939 9.22185C35.2812 14.9424 37.4935 21.7388 38.1833 27.1192C38.5283 29.8099 38.4918 32.1422 38.3691 33.8C38.3078 34.6285 38.2251 35.2876 38.1582 35.7375C38.1247 35.9624 38.0952 36.135 38.0743 36.2502C38.0638 36.3078 38.0555 36.3511 38.0499 36.3794C38.0471 36.3935 38.045 36.4039 38.0437 36.4105C38.043 36.4138 38.0425 36.4161 38.0422 36.4175C38.0421 36.4182 38.042 36.4187 38.0419 36.4189C38.0419 36.419 38.0419 36.4189 38.0419 36.419C38.0419 36.4189 38.042 36.4187 38.5311 36.5223C39.0203 36.6259 39.0203 36.6257 39.0204 36.6253C39.0204 36.6251 39.0205 36.6247 39.0206 36.6243C39.0208 36.6236 39.021 36.6226 39.0212 36.6213C39.0218 36.6188 39.0225 36.6153 39.0234 36.6108C39.0252 36.6019 39.0278 36.5892 39.031 36.5727C39.0376 36.5396 39.0468 36.4915 39.0582 36.4289C39.0809 36.3037 39.1122 36.1207 39.1473 35.8847C39.2175 35.4129 39.3031 34.7292 39.3664 33.8737C39.4929 32.1634 39.5304 29.7623 39.1752 26.992C38.4647 21.4505 36.1796 14.4144 29.8787 8.49313L29.1939 9.22185Z" fill="#660FF2"/>
</svg>
