<svg width="100" height="36" viewBox="0 0 100 36" fill="none" xmlns="http://www.w3.org/2000/svg">
<path d="M41.7648 7.32203C41.7628 9.13074 41.0495 10.8648 39.7813 12.1437C38.5131 13.4227 36.7936 14.1421 35.0001 14.1441H29.2954C29.0144 14.1437 28.7449 14.031 28.5462 13.8306C28.3475 13.6302 28.2357 13.3585 28.2354 13.0751V7.32203C28.2354 5.51272 28.9481 3.77751 30.2167 2.49813C31.4853 1.21875 33.2059 0.5 35.0001 0.5C36.7942 0.5 38.5148 1.21875 39.7834 2.49813C41.0521 3.77751 41.7648 5.51272 41.7648 7.32203Z" fill="#660FF2"/>
<path d="M2.56885 30.7542V10.4272H6.84274V30.7542H2.56885Z" fill="#660FF2"/>
<path d="M16.1553 31.0323C14.4366 31.0323 13.0349 30.3557 11.9504 29.0024C10.875 27.6398 10.3373 25.6423 10.3373 23.0099C10.3373 20.3497 10.8842 18.3383 11.9779 16.9758C13.0717 15.6039 14.5009 14.918 16.2656 14.918C17.0009 14.918 17.6489 15.02 18.2095 15.2239C18.7702 15.4278 19.2527 15.7013 19.6572 16.0442C20.0708 16.3872 20.42 16.7718 20.705 17.1982H20.8428C20.7877 16.9016 20.7187 16.466 20.636 15.8913C20.5625 15.3073 20.5257 14.7095 20.5257 14.0977V9.12023H24.7445V30.7542H21.5184L20.705 28.7382H20.5257C20.2592 29.1646 19.9237 29.5539 19.5193 29.9061C19.1241 30.2491 18.6507 30.5225 18.0993 30.7264C17.5478 30.9303 16.8998 31.0323 16.1553 31.0323ZM17.6305 27.6537C18.7794 27.6537 19.5882 27.3108 20.057 26.6249C20.5349 25.9297 20.7877 24.8869 20.8152 23.4966V23.0377C20.8152 21.5269 20.5855 20.3729 20.1259 19.5757C19.6663 18.7693 18.8116 18.3661 17.5616 18.3661C16.6333 18.3661 15.9072 18.7693 15.3833 19.5757C14.8594 20.3821 14.5974 21.5454 14.5974 23.0655C14.5974 24.5857 14.8594 25.7304 15.3833 26.4997C15.9163 27.2691 16.6654 27.6537 17.6305 27.6537Z" fill="#660FF2"/>
<path d="M33.0368 15.21V30.7542H28.8319V15.21H33.0368ZM30.9412 9.12023C31.5662 9.12023 32.1039 9.26854 32.5543 9.56515C33.0047 9.85249 33.2298 10.3947 33.2298 11.1919C33.2298 11.9797 33.0047 12.5266 32.5543 12.8325C32.1039 13.1291 31.5662 13.2774 30.9412 13.2774C30.307 13.2774 29.7648 13.1291 29.3144 12.8325C28.8732 12.5266 28.6526 11.9797 28.6526 11.1919C28.6526 10.3947 28.8732 9.85249 29.3144 9.56515C29.7648 9.26854 30.307 9.12023 30.9412 9.12023Z" fill="#660FF2"/>
<path d="M51.1591 22.9543C51.1591 24.252 50.9845 25.4014 50.6352 26.4024C50.2952 27.4035 49.7943 28.2516 49.1325 28.9468C48.4799 29.6327 47.6895 30.1517 46.7612 30.504C45.842 30.8562 44.8034 31.0323 43.6454 31.0323C42.5608 31.0323 41.5636 30.8562 40.6536 30.504C39.7529 30.1517 38.967 29.6327 38.2961 28.9468C37.6343 28.2516 37.1196 27.4035 36.752 26.4024C36.3935 25.4014 36.2143 24.252 36.2143 22.9543C36.2143 21.2303 36.5176 19.7704 37.1242 18.5747C37.7308 17.379 38.5948 16.4706 39.7161 15.8496C40.8375 15.2285 42.1748 14.918 43.7281 14.918C45.1711 14.918 46.4487 15.2285 47.5608 15.8496C48.6821 16.4706 49.5599 17.379 50.1941 18.5747C50.8375 19.7704 51.1591 21.2303 51.1591 22.9543ZM40.502 22.9543C40.502 23.9739 40.6123 24.8313 40.8329 25.5265C41.0534 26.2217 41.3981 26.7454 41.8669 27.0976C42.3356 27.4498 42.9468 27.6259 43.7005 27.6259C44.445 27.6259 45.047 27.4498 45.5066 27.0976C45.9753 26.7454 46.3154 26.2217 46.5268 25.5265C46.7474 24.8313 46.8577 23.9739 46.8577 22.9543C46.8577 21.9254 46.7474 21.0727 46.5268 20.3961C46.3154 19.7101 45.9753 19.1957 45.5066 18.8528C45.0378 18.5098 44.4266 18.3383 43.6729 18.3383C42.5608 18.3383 41.752 18.723 41.2465 19.4923C40.7501 20.2617 40.502 21.4157 40.502 22.9543Z" fill="#660FF2"/>
<path d="M72.4248 14.918C74.1712 14.918 75.4901 15.3722 76.3816 16.2806C77.2824 17.1797 77.7327 18.6257 77.7327 20.6185V30.7542H73.514V21.6752C73.514 20.5629 73.3256 19.724 72.9487 19.1586C72.5719 18.5932 71.9883 18.3105 71.1978 18.3105C70.0857 18.3105 69.2952 18.7137 68.8265 19.5201C68.3577 20.3173 68.1234 21.462 68.1234 22.9543V30.7542H63.9184V21.6752C63.9184 20.9337 63.8357 20.3126 63.6702 19.8121C63.5048 19.3116 63.252 18.9362 62.912 18.6859C62.5719 18.4356 62.1353 18.3105 61.6022 18.3105C60.821 18.3105 60.2052 18.5098 59.7548 18.9084C59.3136 19.2977 58.9965 19.877 58.8035 20.6463C58.6197 21.4064 58.5278 22.3379 58.5278 23.4409V30.7542H54.3228V15.21H57.5351L58.1004 17.1982H58.3348C58.6473 16.6606 59.0379 16.225 59.5066 15.8913C59.9846 15.5576 60.5085 15.312 61.0783 15.1544C61.6482 14.9968 62.2272 14.918 62.8155 14.918C63.946 14.918 64.9019 15.1034 65.6831 15.4742C66.4736 15.8449 67.0802 16.4196 67.503 17.1982H67.8752C68.3348 16.4011 68.9827 15.8218 69.8191 15.4603C70.6647 15.0988 71.5333 14.918 72.4248 14.918Z" fill="#660FF2"/>
<path d="M95.7586 22.9543C95.7586 24.252 95.5839 25.4014 95.2346 26.4024C94.8946 27.4035 94.3937 28.2516 93.7319 28.9468C93.0793 29.6327 92.2889 30.1517 91.3606 30.504C90.4415 30.8562 89.4028 31.0323 88.2448 31.0323C87.1602 31.0323 86.163 30.8562 85.253 30.504C84.3523 30.1517 83.5665 29.6327 82.8955 28.9468C82.2337 28.2516 81.719 27.4035 81.3514 26.4024C80.9929 25.4014 80.8137 24.252 80.8137 22.9543C80.8137 21.2303 81.117 19.7704 81.7236 18.5747C82.3302 17.379 83.1942 16.4706 84.3155 15.8496C85.4369 15.2285 86.7742 14.918 88.3275 14.918C89.7705 14.918 91.0481 15.2285 92.1602 15.8496C93.2815 16.4706 94.1593 17.379 94.7935 18.5747C95.4369 19.7704 95.7586 21.2303 95.7586 22.9543ZM85.1014 22.9543C85.1014 23.9739 85.2117 24.8313 85.4323 25.5265C85.6528 26.2217 85.9975 26.7454 86.4663 27.0976C86.935 27.4498 87.5462 27.6259 88.2999 27.6259C89.0444 27.6259 89.6464 27.4498 90.106 27.0976C90.5747 26.7454 90.9148 26.2217 91.1262 25.5265C91.3468 24.8313 91.4571 23.9739 91.4571 22.9543C91.4571 21.9254 91.3468 21.0727 91.1262 20.3961C90.9148 19.7101 90.5747 19.1957 90.106 18.8528C89.6372 18.5098 89.026 18.3383 88.2723 18.3383C87.1602 18.3383 86.3514 18.723 85.8459 19.4923C85.3495 20.2617 85.1014 21.4157 85.1014 22.9543Z" fill="#660FF2"/>
</svg>
