<svg width="15" height="16" viewBox="0 0 15 16" fill="none" xmlns="http://www.w3.org/2000/svg">
<path d="M0.9375 7.31386C0.938275 6.56818 1.23484 5.85326 1.76212 5.32598C2.2894 4.7987 3.00432 4.50214 3.75 4.50136H6.08203C6.25254 4.4914 9.22383 4.28222 12.0533 1.90917C12.19 1.79442 12.3565 1.72104 12.5334 1.69766C12.7103 1.67428 12.8902 1.70186 13.0519 1.77717C13.2137 1.85249 13.3506 1.9724 13.4466 2.12282C13.5426 2.27324 13.5936 2.44793 13.5938 2.62636V12.0014C13.5937 12.1798 13.5428 12.3546 13.4468 12.5051C13.3509 12.6556 13.214 12.7756 13.0522 12.851C12.8904 12.9264 12.7105 12.954 12.5335 12.9307C12.3566 12.9073 12.19 12.8339 12.0533 12.7191C9.84023 10.8629 7.5416 10.3309 6.5625 10.182V12.0406C6.5627 12.1951 6.52471 12.3472 6.45193 12.4835C6.37915 12.6198 6.27382 12.7359 6.14531 12.8217L5.50078 13.2512C5.3762 13.3343 5.23351 13.3864 5.08466 13.4031C4.93582 13.4197 4.78514 13.4005 4.64525 13.347C4.50537 13.2934 4.38034 13.2072 4.28065 13.0954C4.18096 12.9836 4.1095 12.8496 4.07227 12.7045L3.38262 10.1053C2.70602 10.0152 2.08513 9.68259 1.63538 9.16915C1.18564 8.65571 0.937643 7.99642 0.9375 7.31386ZM12.6562 11.9973V2.62636C10.1479 4.73046 7.58027 5.26308 6.5625 5.39433V9.23105C7.5791 9.36464 10.1461 9.89609 12.6562 11.9973ZM4.98047 12.466V12.4725L5.625 12.043V10.1264H4.35938L4.98047 12.466ZM3.75 9.18886H5.625V5.43886H3.75C3.25272 5.43886 2.77581 5.63641 2.42418 5.98804C2.07254 6.33967 1.875 6.81658 1.875 7.31386C1.875 7.81114 2.07254 8.28806 2.42418 8.63969C2.77581 8.99132 3.25272 9.18886 3.75 9.18886Z" fill="#495057"/>
</svg>
