<svg width="28" height="28" viewBox="0 0 28 28" fill="none" xmlns="http://www.w3.org/2000/svg">
<path d="M26.1626 10.6411C26.0567 10.3145 25.8569 10.0263 25.5884 9.81236C25.3198 9.59843 24.9942 9.46823 24.6522 9.43799L18.1564 8.87799L15.6101 2.82299C15.4776 2.50528 15.2539 2.23389 14.9675 2.043C14.681 1.8521 14.3444 1.75024 14.0001 1.75024C13.6559 1.75024 13.3193 1.8521 13.0328 2.043C12.7463 2.23389 12.5227 2.50528 12.3901 2.82299L9.85153 8.87799L3.34809 9.44128C3.00469 9.47013 2.67746 9.59973 2.40742 9.81382C2.13738 10.0279 1.93657 10.317 1.83015 10.6447C1.72374 10.9725 1.71647 11.3244 1.80925 11.6563C1.90202 11.9882 2.09073 12.2853 2.35168 12.5103L7.28559 16.8219L5.80684 23.2247C5.72865 23.5598 5.75096 23.9105 5.87099 24.2329C5.99101 24.5554 6.20343 24.8353 6.48168 25.0377C6.75993 25.24 7.09166 25.3559 7.43541 25.3708C7.77915 25.3857 8.11965 25.2989 8.41434 25.1213L13.9925 21.7306L19.5826 25.1213C19.8773 25.2989 20.2178 25.3857 20.5616 25.3708C20.9053 25.3559 21.237 25.24 21.5153 25.0377C21.7935 24.8353 22.0059 24.5554 22.126 24.2329C22.246 23.9105 22.2683 23.5598 22.1901 23.2247L20.7125 16.8153L25.6453 12.5103C25.9062 12.2845 26.0945 11.9865 26.1866 11.654C26.2786 11.3214 26.2703 10.969 26.1626 10.6411ZM24.4979 11.188L19.5651 15.493C19.325 15.7018 19.1464 15.9722 19.0485 16.2749C18.9506 16.5777 18.9371 16.9014 19.0095 17.2113L20.4915 23.625L14.9057 20.2344C14.6332 20.0684 14.3203 19.9807 14.0012 19.9807C13.6821 19.9807 13.3692 20.0684 13.0967 20.2344L7.51856 23.625L8.99075 17.2156C9.0631 16.9058 9.0496 16.5821 8.9517 16.2793C8.85379 15.9765 8.6752 15.7062 8.43512 15.4974L3.50012 11.1946C3.49972 11.1913 3.49972 11.188 3.50012 11.1847L10.0014 10.6225C10.3188 10.5945 10.6225 10.4804 10.8798 10.2925C11.1372 10.1046 11.3383 9.84996 11.4615 9.55612L14.0001 3.50878L16.5376 9.55612C16.6609 9.84996 16.862 10.1046 17.1193 10.2925C17.3766 10.4804 17.6804 10.5945 17.9978 10.6225L24.5001 11.1847V11.1924L24.4979 11.188Z" fill="#444FDD"/>
</svg>
