<svg width="16" height="17" viewBox="0 0 16 17" fill="none" xmlns="http://www.w3.org/2000/svg">
<path d="M2.0001 8.28263C2.0001 8.41524 2.05277 8.54241 2.14654 8.63618C2.24031 8.72995 2.36749 8.78263 2.5001 8.78263H12.2932L8.64635 12.4289C8.59989 12.4753 8.56304 12.5305 8.5379 12.5912C8.51276 12.6519 8.49982 12.7169 8.49982 12.7826C8.49982 12.8483 8.51276 12.9134 8.5379 12.9741C8.56304 13.0348 8.59989 13.0899 8.64635 13.1364C8.6928 13.1828 8.74795 13.2197 8.80865 13.2448C8.86934 13.27 8.9344 13.2829 9.0001 13.2829C9.06579 13.2829 9.13085 13.27 9.19154 13.2448C9.25224 13.2197 9.30739 13.1828 9.35385 13.1364L13.8538 8.63638C13.9003 8.58994 13.9372 8.5348 13.9624 8.4741C13.9875 8.4134 14.0005 8.34833 14.0005 8.28263C14.0005 8.21692 13.9875 8.15186 13.9624 8.09116C13.9372 8.03046 13.9003 7.97531 13.8538 7.92888L9.35385 3.42888C9.26003 3.33506 9.13278 3.28235 9.0001 3.28235C8.86741 3.28235 8.74017 3.33506 8.64635 3.42888C8.55252 3.5227 8.49982 3.64994 8.49982 3.78263C8.49982 3.91531 8.55252 4.04256 8.64635 4.13638L12.2932 7.78263H2.5001C2.36749 7.78263 2.24031 7.83531 2.14654 7.92907C2.05277 8.02284 2.0001 8.15002 2.0001 8.28263Z" fill="#660FF2"/>
</svg>
