<svg width="16" height="17" viewBox="0 0 16 17" fill="none" xmlns="http://www.w3.org/2000/svg">
<path d="M11.5 2.78259H4.5C4.23478 2.78259 3.98043 2.88795 3.79289 3.07549C3.60536 3.26302 3.5 3.51738 3.5 3.78259V14.7826C3.50004 14.8718 3.52397 14.9594 3.56929 15.0363C3.6146 15.1132 3.67967 15.1765 3.75772 15.2197C3.83578 15.263 3.92399 15.2845 4.01319 15.2822C4.10239 15.2798 4.18933 15.2536 4.265 15.2063L8 12.872L11.7356 15.2063C11.8113 15.2535 11.8982 15.2795 11.9873 15.2818C12.0764 15.2841 12.1645 15.2625 12.2424 15.2193C12.3204 15.176 12.3854 15.1128 12.4307 15.036C12.4759 14.9592 12.4999 14.8717 12.5 14.7826V3.78259C12.5 3.51738 12.3946 3.26302 12.2071 3.07549C12.0196 2.88795 11.7652 2.78259 11.5 2.78259ZM11.5 13.8807L8.26437 11.8588C8.18491 11.8092 8.09308 11.7828 7.99937 11.7828C7.90566 11.7828 7.81384 11.8092 7.73438 11.8588L4.5 13.8807V3.78259H11.5V13.8807Z" fill="#660FF2"/>
</svg>
