<svg width="17" height="17" viewBox="0 0 17 17" fill="none" xmlns="http://www.w3.org/2000/svg">
<path d="M8.04124 11.995L3.04123 6.99502C2.99478 6.94856 2.95793 6.89341 2.93279 6.83272C2.90765 6.77202 2.89471 6.70697 2.89471 6.64127C2.89471 6.57557 2.90765 6.51052 2.93279 6.44982C2.95793 6.38912 2.99478 6.33397 3.04123 6.28752C3.08769 6.24106 3.14284 6.20421 3.20354 6.17907C3.26423 6.15393 3.32929 6.14099 3.39499 6.14099C3.46068 6.14099 3.52574 6.15393 3.58643 6.17907C3.64713 6.20421 3.70228 6.24106 3.74874 6.28752L8.39499 10.9344L13.0412 6.28752C13.1351 6.1937 13.2623 6.14099 13.395 6.14099C13.5277 6.14099 13.6549 6.1937 13.7487 6.28752C13.8426 6.38134 13.8953 6.50859 13.8953 6.64127C13.8953 6.77395 13.8426 6.9012 13.7487 6.99502L8.74874 11.995C8.7023 12.0415 8.64715 12.0784 8.58646 12.1035C8.52576 12.1287 8.46069 12.1417 8.39499 12.1417C8.32928 12.1417 8.26421 12.1287 8.20352 12.1035C8.14282 12.0784 8.08767 12.0415 8.04124 11.995Z" fill="#343A40"/>
</svg>
