<svg width="426" height="233" viewBox="0 0 426 233" fill="none" xmlns="http://www.w3.org/2000/svg">
<path d="M16.1383 140V52.1943H30.5523V140H16.1383ZM72.1753 141.201C64.2476 141.201 57.8814 138.318 53.0767 132.553C48.3121 126.747 45.9297 118.199 45.9297 106.908C45.9297 95.4966 48.3521 86.8682 53.1968 81.0225C58.0816 75.1768 64.5079 72.2539 72.4756 72.2539C75.8389 72.2539 78.7818 72.7144 81.3043 73.6353C83.8267 74.5161 85.9888 75.7173 87.7906 77.2388C89.6324 78.7603 91.1939 80.4619 92.4752 82.3438H93.1358C92.9356 81.1025 92.6954 79.3208 92.4151 76.9985C92.1749 74.6362 92.0547 72.4541 92.0547 70.4521V46.5488H106.229V140H95.1778L92.6553 130.931H92.0547C90.8536 132.853 89.3321 134.595 87.4903 136.156C85.6885 137.678 83.5264 138.899 81.004 139.82C78.5215 140.741 75.5787 141.201 72.1753 141.201ZM76.1392 129.73C82.1851 129.73 86.4493 127.988 88.9317 124.505C91.4141 121.021 92.6954 115.796 92.7754 108.83V106.968C92.7754 99.5205 91.5743 93.8149 89.1719 89.8511C86.7696 85.8472 82.3853 83.8452 76.0191 83.8452C70.9341 83.8452 67.0503 85.9072 64.3677 90.0312C61.7252 94.1152 60.4039 99.8208 60.4039 107.148C60.4039 114.475 61.7252 120.081 64.3677 123.964C67.0503 127.808 70.9742 129.73 76.1392 129.73ZM138.122 73.5151V140H124.008V73.5151H138.122ZM131.155 48.0503C133.317 48.0503 135.179 48.6309 136.741 49.792C138.342 50.9531 139.143 52.9551 139.143 55.7979C139.143 58.6006 138.342 60.6025 136.741 61.8037C135.179 62.9648 133.317 63.5454 131.155 63.5454C128.913 63.5454 127.011 62.9648 125.45 61.8037C123.928 60.6025 123.167 58.6006 123.167 55.7979C123.167 52.9551 123.928 50.9531 125.45 49.792C127.011 48.6309 128.913 48.0503 131.155 48.0503ZM214.759 106.607C214.759 112.133 214.039 117.038 212.597 121.322C211.156 125.606 209.054 129.229 206.291 132.192C203.528 135.115 200.205 137.357 196.321 138.919C192.437 140.44 188.053 141.201 183.168 141.201C178.604 141.201 174.42 140.44 170.616 138.919C166.812 137.357 163.509 135.115 160.707 132.192C157.944 129.229 155.802 125.606 154.28 121.322C152.759 117.038 151.998 112.133 151.998 106.607C151.998 99.2803 153.259 93.0742 155.782 87.9893C158.344 82.8643 161.988 78.9604 166.712 76.2778C171.437 73.5952 177.062 72.2539 183.589 72.2539C189.715 72.2539 195.12 73.5952 199.805 76.2778C204.489 78.9604 208.153 82.8643 210.795 87.9893C213.438 93.1143 214.759 99.3203 214.759 106.607ZM166.532 106.607C166.532 111.452 167.113 115.596 168.274 119.04C169.475 122.483 171.317 125.125 173.799 126.967C176.282 128.769 179.485 129.67 183.409 129.67C187.332 129.67 190.536 128.769 193.018 126.967C195.5 125.125 197.322 122.483 198.483 119.04C199.645 115.596 200.225 111.452 200.225 106.607C200.225 101.763 199.645 97.6587 198.483 94.2954C197.322 90.8921 195.5 88.3096 193.018 86.5479C190.536 84.7461 187.312 83.8452 183.349 83.8452C177.503 83.8452 173.239 85.8071 170.556 89.731C167.874 93.6548 166.532 99.2803 166.532 106.607ZM303.648 72.2539C311.096 72.2539 316.701 74.1758 320.465 78.0195C324.268 81.8633 326.17 88.0293 326.17 96.5176V140H312.057V99.04C312.057 93.9951 311.076 90.1914 309.114 87.6289C307.152 85.0664 304.169 83.7852 300.165 83.7852C294.56 83.7852 290.516 85.5869 288.033 89.1904C285.591 92.7539 284.37 97.939 284.37 104.746V140H270.256V99.04C270.256 95.6768 269.815 92.874 268.935 90.6318C268.094 88.3496 266.792 86.6479 265.031 85.5269C263.269 84.3657 261.047 83.7852 258.364 83.7852C254.48 83.7852 251.377 84.666 249.055 86.4277C246.773 88.1895 245.131 90.792 244.13 94.2354C243.129 97.6387 242.629 101.823 242.629 106.788V140H228.515V73.5151H239.506L241.488 82.4639H242.268C243.63 80.1416 245.311 78.2397 247.313 76.7583C249.355 75.2368 251.618 74.1157 254.1 73.395C256.582 72.6343 259.165 72.2539 261.848 72.2539C266.812 72.2539 270.997 73.1348 274.4 74.8965C277.803 76.6182 280.346 79.2607 282.027 82.8242H283.108C285.19 79.2207 288.093 76.5581 291.817 74.8364C295.54 73.1147 299.484 72.2539 303.648 72.2539ZM402.267 106.607C402.267 112.133 401.546 117.038 400.105 121.322C398.663 125.606 396.561 129.229 393.799 132.192C391.036 135.115 387.713 137.357 383.829 138.919C379.945 140.44 375.561 141.201 370.676 141.201C366.112 141.201 361.928 140.44 358.124 138.919C354.32 137.357 351.017 135.115 348.214 132.192C345.452 129.229 343.309 125.606 341.788 121.322C340.267 117.038 339.506 112.133 339.506 106.607C339.506 99.2803 340.767 93.0742 343.289 87.9893C345.852 82.8643 349.496 78.9604 354.22 76.2778C358.945 73.5952 364.57 72.2539 371.097 72.2539C377.223 72.2539 382.628 73.5952 387.312 76.2778C391.997 78.9604 395.661 82.8643 398.303 87.9893C400.946 93.1143 402.267 99.3203 402.267 106.607ZM354.04 106.607C354.04 111.452 354.621 115.596 355.782 119.04C356.983 122.483 358.825 125.125 361.307 126.967C363.789 128.769 366.993 129.67 370.916 129.67C374.84 129.67 378.043 128.769 380.526 126.967C383.008 125.125 384.83 122.483 385.991 119.04C387.152 115.596 387.733 111.452 387.733 106.607C387.733 101.763 387.152 97.6587 385.991 94.2954C384.83 90.8921 383.008 88.3096 380.526 86.5479C378.043 84.7461 374.82 83.8452 370.856 83.8452C365.011 83.8452 360.746 85.8071 358.064 89.731C355.381 93.6548 354.04 99.2803 354.04 106.607Z" fill="#444FDD"/>
<path d="M180.5 34.5C180.492 42.3213 177.433 49.8197 171.997 55.3502C166.56 60.8806 159.189 63.9914 151.5 64H127.044C125.84 63.9984 124.685 63.5109 123.833 62.6443C122.981 61.7778 122.502 60.6029 122.5 59.3774V34.5C122.5 26.6761 125.555 19.1727 130.994 13.6403C136.432 8.10803 143.809 5 151.5 5C159.191 5 166.568 8.10803 172.006 13.6403C177.445 19.1727 180.5 26.6761 180.5 34.5Z" fill="#444FDD"/>
<path d="M23.8134 211H16.8994V165.414H23.8134V211ZM45.712 177.953C49.8136 177.953 52.9093 178.861 54.9991 180.678C57.1085 182.494 58.1632 185.326 58.1632 189.174V211H53.2706L51.9523 206.4H51.7179C50.7999 207.572 49.8526 208.539 48.8761 209.301C47.8995 210.062 46.7667 210.629 45.4776 211C44.2081 211.391 42.6554 211.586 40.8194 211.586C38.8859 211.586 37.1573 211.234 35.6339 210.531C34.1105 209.809 32.9093 208.715 32.0304 207.25C31.1515 205.785 30.712 203.93 30.712 201.684C30.712 198.344 31.9523 195.834 34.4327 194.154C36.9327 192.475 40.7023 191.547 45.7413 191.371L51.3663 191.166V189.467C51.3663 187.221 50.839 185.619 49.7843 184.662C48.7491 183.705 47.2843 183.227 45.3898 183.227C43.7687 183.227 42.1964 183.461 40.673 183.93C39.1495 184.398 37.6651 184.975 36.2198 185.658L33.9933 180.795C35.5753 179.955 37.3722 179.271 39.3839 178.744C41.4151 178.217 43.5245 177.953 45.712 177.953ZM51.337 195.502L47.1476 195.648C43.7101 195.766 41.298 196.352 39.9112 197.406C38.5245 198.461 37.8312 199.906 37.8312 201.742C37.8312 203.344 38.3097 204.516 39.2667 205.258C40.2237 205.98 41.4835 206.342 43.046 206.342C45.4288 206.342 47.4015 205.668 48.964 204.32C50.546 202.953 51.337 200.951 51.337 198.314V195.502ZM84.0462 177.953C87.6985 177.953 90.5403 178.9 92.5716 180.795C94.6223 182.67 95.6477 185.688 95.6477 189.848V211H88.763V191.137C88.763 188.617 88.2454 186.732 87.2102 185.482C86.1751 184.213 84.5735 183.578 82.4055 183.578C79.261 183.578 77.0735 184.545 75.843 186.479C74.6321 188.412 74.0266 191.215 74.0266 194.887V211H67.1419V178.568H72.5032L73.47 182.963H73.8509C74.554 181.83 75.4231 180.902 76.4583 180.18C77.513 179.438 78.6848 178.881 79.9739 178.51C81.2825 178.139 82.6399 177.953 84.0462 177.953ZM115.525 211.586C111.658 211.586 108.552 210.18 106.208 207.367C103.884 204.535 102.722 200.365 102.722 194.857C102.722 189.291 103.904 185.082 106.267 182.23C108.65 179.379 111.785 177.953 115.671 177.953C117.312 177.953 118.747 178.178 119.978 178.627C121.208 179.057 122.263 179.643 123.142 180.385C124.04 181.127 124.802 181.957 125.427 182.875H125.749C125.652 182.27 125.535 181.4 125.398 180.268C125.281 179.115 125.222 178.051 125.222 177.074V165.414H132.136V211H126.746L125.515 206.576H125.222C124.636 207.514 123.894 208.363 122.996 209.125C122.117 209.867 121.062 210.463 119.831 210.912C118.621 211.361 117.185 211.586 115.525 211.586ZM117.458 205.99C120.408 205.99 122.488 205.141 123.699 203.441C124.91 201.742 125.535 199.193 125.574 195.795V194.887C125.574 191.254 124.988 188.471 123.816 186.537C122.644 184.584 120.505 183.607 117.4 183.607C114.919 183.607 113.025 184.613 111.716 186.625C110.427 188.617 109.783 191.4 109.783 194.975C109.783 198.549 110.427 201.283 111.716 203.178C113.025 205.053 114.939 205.99 117.458 205.99ZM184.986 194.711C184.986 197.406 184.635 199.799 183.931 201.889C183.228 203.979 182.203 205.746 180.855 207.191C179.508 208.617 177.886 209.711 175.992 210.473C174.097 211.215 171.959 211.586 169.576 211.586C167.349 211.586 165.308 211.215 163.453 210.473C161.597 209.711 159.986 208.617 158.619 207.191C157.271 205.746 156.226 203.979 155.484 201.889C154.742 199.799 154.371 197.406 154.371 194.711C154.371 191.137 154.986 188.109 156.217 185.629C157.467 183.129 159.244 181.225 161.549 179.916C163.853 178.607 166.597 177.953 169.781 177.953C172.769 177.953 175.406 178.607 177.691 179.916C179.976 181.225 181.763 183.129 183.052 185.629C184.342 188.129 184.986 191.156 184.986 194.711ZM161.461 194.711C161.461 197.074 161.744 199.096 162.31 200.775C162.896 202.455 163.795 203.744 165.006 204.643C166.217 205.521 167.779 205.961 169.693 205.961C171.607 205.961 173.17 205.521 174.381 204.643C175.592 203.744 176.48 202.455 177.047 200.775C177.613 199.096 177.896 197.074 177.896 194.711C177.896 192.348 177.613 190.346 177.047 188.705C176.48 187.045 175.592 185.785 174.381 184.926C173.17 184.047 171.597 183.607 169.664 183.607C166.812 183.607 164.732 184.564 163.424 186.479C162.115 188.393 161.461 191.137 161.461 194.711ZM208.437 183.812H200.557V211H193.672V183.812H188.369V180.502L193.672 178.48V176.225C193.672 173.471 194.101 171.283 194.961 169.662C195.84 168.041 197.09 166.879 198.711 166.176C200.351 165.453 202.305 165.092 204.57 165.092C206.055 165.092 207.412 165.219 208.642 165.473C209.873 165.707 210.908 165.98 211.748 166.293L209.961 171.508C209.297 171.293 208.555 171.098 207.734 170.922C206.914 170.727 206.035 170.629 205.098 170.629C203.535 170.629 202.383 171.117 201.641 172.094C200.918 173.07 200.557 174.496 200.557 176.371V178.568H208.437V183.812ZM235.125 178.568V211H228.24V178.568H235.125ZM231.727 166.146C232.781 166.146 233.69 166.43 234.451 166.996C235.233 167.562 235.623 168.539 235.623 169.926C235.623 171.293 235.233 172.27 234.451 172.855C233.69 173.422 232.781 173.705 231.727 173.705C230.633 173.705 229.705 173.422 228.944 172.855C228.201 172.27 227.83 171.293 227.83 169.926C227.83 168.539 228.201 167.562 228.944 166.996C229.705 166.43 230.633 166.146 231.727 166.146ZM255.237 211.586C251.37 211.586 248.264 210.18 245.92 207.367C243.596 204.535 242.434 200.365 242.434 194.857C242.434 189.291 243.616 185.082 245.979 182.23C248.362 179.379 251.496 177.953 255.383 177.953C257.024 177.953 258.459 178.178 259.69 178.627C260.92 179.057 261.975 179.643 262.854 180.385C263.752 181.127 264.514 181.957 265.139 182.875H265.461C265.364 182.27 265.246 181.4 265.11 180.268C264.993 179.115 264.934 178.051 264.934 177.074V165.414H271.848V211H266.457L265.227 206.576H264.934C264.348 207.514 263.606 208.363 262.707 209.125C261.829 209.867 260.774 210.463 259.543 210.912C258.332 211.361 256.897 211.586 255.237 211.586ZM257.17 205.99C260.12 205.99 262.2 205.141 263.411 203.441C264.621 201.742 265.246 199.193 265.286 195.795V194.887C265.286 191.254 264.7 188.471 263.528 186.537C262.356 184.584 260.217 183.607 257.112 183.607C254.631 183.607 252.737 184.613 251.428 186.625C250.139 188.617 249.495 191.4 249.495 194.975C249.495 198.549 250.139 201.283 251.428 203.178C252.737 205.053 254.651 205.99 257.17 205.99ZM287.946 178.568V211H281.061V178.568H287.946ZM284.547 166.146C285.602 166.146 286.51 166.43 287.272 166.996C288.053 167.562 288.444 168.539 288.444 169.926C288.444 171.293 288.053 172.27 287.272 172.855C286.51 173.422 285.602 173.705 284.547 173.705C283.454 173.705 282.526 173.422 281.764 172.855C281.022 172.27 280.651 171.293 280.651 169.926C280.651 168.539 281.022 167.562 281.764 166.996C282.526 166.43 283.454 166.146 284.547 166.146ZM325.87 194.711C325.87 197.406 325.518 199.799 324.815 201.889C324.112 203.979 323.087 205.746 321.739 207.191C320.391 208.617 318.77 209.711 316.876 210.473C314.981 211.215 312.842 211.586 310.46 211.586C308.233 211.586 306.192 211.215 304.337 210.473C302.481 209.711 300.87 208.617 299.503 207.191C298.155 205.746 297.11 203.979 296.368 201.889C295.626 199.799 295.255 197.406 295.255 194.711C295.255 191.137 295.87 188.109 297.1 185.629C298.35 183.129 300.128 181.225 302.432 179.916C304.737 178.607 307.481 177.953 310.665 177.953C313.653 177.953 316.29 178.607 318.575 179.916C320.86 181.225 322.647 183.129 323.936 185.629C325.225 188.129 325.87 191.156 325.87 194.711ZM302.344 194.711C302.344 197.074 302.628 199.096 303.194 200.775C303.78 202.455 304.678 203.744 305.889 204.643C307.1 205.521 308.663 205.961 310.577 205.961C312.491 205.961 314.053 205.521 315.264 204.643C316.475 203.744 317.364 202.455 317.93 200.775C318.497 199.096 318.78 197.074 318.78 194.711C318.78 192.348 318.497 190.346 317.93 188.705C317.364 187.045 316.475 185.785 315.264 184.926C314.053 184.047 312.481 183.607 310.548 183.607C307.696 183.607 305.616 184.564 304.307 186.479C302.999 188.393 302.344 191.137 302.344 194.711ZM369.77 177.953C373.403 177.953 376.138 178.891 377.974 180.766C379.829 182.641 380.757 185.648 380.757 189.789V211H373.872V191.02C373.872 188.559 373.393 186.703 372.436 185.453C371.479 184.203 370.024 183.578 368.071 183.578C365.337 183.578 363.364 184.457 362.153 186.215C360.962 187.953 360.366 190.482 360.366 193.803V211H353.481V191.02C353.481 189.379 353.266 188.012 352.837 186.918C352.427 185.805 351.792 184.975 350.932 184.428C350.073 183.861 348.989 183.578 347.681 183.578C345.786 183.578 344.272 184.008 343.14 184.867C342.026 185.727 341.225 186.996 340.737 188.676C340.249 190.336 340.005 192.377 340.005 194.799V211H333.12V178.568H338.481L339.448 182.934H339.829C340.493 181.801 341.313 180.873 342.29 180.15C343.286 179.408 344.39 178.861 345.6 178.51C346.811 178.139 348.071 177.953 349.38 177.953C351.802 177.953 353.843 178.383 355.503 179.242C357.163 180.082 358.403 181.371 359.224 183.109H359.751C360.766 181.352 362.182 180.053 363.999 179.213C365.815 178.373 367.739 177.953 369.77 177.953ZM411.503 201.742C411.503 203.871 410.985 205.668 409.95 207.133C408.915 208.598 407.401 209.711 405.409 210.473C403.437 211.215 401.015 211.586 398.144 211.586C395.878 211.586 393.925 211.42 392.284 211.088C390.663 210.775 389.13 210.287 387.685 209.623V203.676C389.228 204.398 390.956 205.023 392.87 205.551C394.804 206.078 396.63 206.342 398.349 206.342C400.614 206.342 402.245 205.99 403.241 205.287C404.237 204.564 404.735 203.607 404.735 202.416C404.735 201.713 404.53 201.088 404.12 200.541C403.73 199.975 402.987 199.398 401.894 198.812C400.819 198.207 399.237 197.484 397.148 196.645C395.097 195.824 393.368 195.004 391.962 194.184C390.556 193.363 389.491 192.377 388.769 191.225C388.046 190.053 387.685 188.559 387.685 186.742C387.685 183.871 388.817 181.693 391.083 180.209C393.368 178.705 396.386 177.953 400.136 177.953C402.128 177.953 404.003 178.158 405.761 178.568C407.538 178.959 409.276 179.535 410.976 180.297L408.808 185.482C407.343 184.838 405.868 184.311 404.384 183.9C402.919 183.471 401.425 183.256 399.901 183.256C398.124 183.256 396.767 183.529 395.829 184.076C394.911 184.623 394.452 185.404 394.452 186.42C394.452 187.182 394.677 187.826 395.126 188.354C395.575 188.881 396.347 189.408 397.44 189.936C398.554 190.463 400.097 191.117 402.069 191.898C404.003 192.641 405.673 193.422 407.079 194.242C408.505 195.043 409.599 196.029 410.36 197.201C411.122 198.373 411.503 199.887 411.503 201.742Z" fill="#444FDD"/>
</svg>
