<?xml version="1.0" encoding="UTF-8"?>
<svg xmlns="http://www.w3.org/2000/svg" xmlns:xlink="http://www.w3.org/1999/xlink" width="0" height="0">
<symbol id="arrow"  viewBox="0 0 16 17" fill="none">
<path d="M2.0001 8.28263C2.0001 8.41524 2.05277 8.54241 2.14654 8.63618C2.24031 8.72995 2.36749 8.78263 2.5001 8.78263H12.2932L8.64635 12.4289C8.59989 12.4753 8.56304 12.5305 8.5379 12.5912C8.51276 12.6519 8.49982 12.7169 8.49982 12.7826C8.49982 12.8483 8.51276 12.9134 8.5379 12.9741C8.56304 13.0348 8.59989 13.0899 8.64635 13.1364C8.6928 13.1828 8.74795 13.2197 8.80865 13.2448C8.86934 13.27 8.9344 13.2829 9.0001 13.2829C9.06579 13.2829 9.13085 13.27 9.19154 13.2448C9.25224 13.2197 9.30739 13.1828 9.35385 13.1364L13.8538 8.63638C13.9003 8.58994 13.9372 8.5348 13.9624 8.4741C13.9875 8.4134 14.0005 8.34833 14.0005 8.28263C14.0005 8.21692 13.9875 8.15186 13.9624 8.09116C13.9372 8.03046 13.9003 7.97531 13.8538 7.92888L9.35385 3.42888C9.26003 3.33506 9.13278 3.28235 9.0001 3.28235C8.86741 3.28235 8.74017 3.33506 8.64635 3.42888C8.55252 3.5227 8.49982 3.64994 8.49982 3.78263C8.49982 3.91531 8.55252 4.04256 8.64635 4.13638L12.2932 7.78263H2.5001C2.36749 7.78263 2.24031 7.83531 2.14654 7.92907C2.05277 8.02284 2.0001 8.15002 2.0001 8.28263Z" fill="#660FF2"/>
</symbol>

<symbol id="bookmark" viewBox="0 0 16 17">
<path d="M11.5 2.78259H4.5C4.23478 2.78259 3.98043 2.88795 3.79289 3.07549C3.60536 3.26302 3.5 3.51738 3.5 3.78259V14.7826C3.50004 14.8718 3.52397 14.9594 3.56929 15.0363C3.6146 15.1132 3.67967 15.1765 3.75772 15.2197C3.83578 15.263 3.92399 15.2845 4.01319 15.2822C4.10239 15.2798 4.18933 15.2536 4.265 15.2063L8 12.872L11.7356 15.2063C11.8113 15.2535 11.8982 15.2795 11.9873 15.2818C12.0764 15.2841 12.1645 15.2625 12.2424 15.2193C12.3204 15.176 12.3854 15.1128 12.4307 15.036C12.4759 14.9592 12.4999 14.8717 12.5 14.7826V3.78259C12.5 3.51738 12.3946 3.26302 12.2071 3.07549C12.0196 2.88795 11.7652 2.78259 11.5 2.78259ZM11.5 13.8807L8.26437 11.8588C8.18491 11.8092 8.09308 11.7828 7.99937 11.7828C7.90566 11.7828 7.81384 11.8092 7.73438 11.8588L4.5 13.8807V3.78259H11.5V13.8807Z" />
</symbol>

<symbol id="down"  viewBox="0 0 17 17" fill="none">
<path d="M8.04124 11.995L3.04123 6.99502C2.99478 6.94856 2.95793 6.89341 2.93279 6.83272C2.90765 6.77202 2.89471 6.70697 2.89471 6.64127C2.89471 6.57557 2.90765 6.51052 2.93279 6.44982C2.95793 6.38912 2.99478 6.33397 3.04123 6.28752C3.08769 6.24106 3.14284 6.20421 3.20354 6.17907C3.26423 6.15393 3.32929 6.14099 3.39499 6.14099C3.46068 6.14099 3.52574 6.15393 3.58643 6.17907C3.64713 6.20421 3.70228 6.24106 3.74874 6.28752L8.39499 10.9344L13.0412 6.28752C13.1351 6.1937 13.2623 6.14099 13.395 6.14099C13.5277 6.14099 13.6549 6.1937 13.7487 6.28752C13.8426 6.38134 13.8953 6.50859 13.8953 6.64127C13.8953 6.77395 13.8426 6.9012 13.7487 6.99502L8.74874 11.995C8.7023 12.0415 8.64715 12.0784 8.58646 12.1035C8.52576 12.1287 8.46069 12.1417 8.39499 12.1417C8.32928 12.1417 8.26421 12.1287 8.20352 12.1035C8.14282 12.0784 8.08767 12.0415 8.04124 11.995Z" fill="#343A40"/>
</symbol>

<symbol id="drop"  viewBox="0 0 43 38" fill="none">
<path d="M1.23292 1.11488C0.966836 1.18875 0.811016 1.46433 0.884881 1.73041C0.958747 1.99649 1.23433 2.15231 1.50041 2.07844L1.23292 1.11488ZM38.112 36.795C38.2626 37.0264 38.5723 37.092 38.8038 36.9415L42.5759 34.4878C42.8074 34.3372 42.873 34.0275 42.7225 33.796C42.5719 33.5645 42.2622 33.499 42.0307 33.6495L38.6776 35.8306L36.4966 32.4775C36.346 32.246 36.0363 32.1804 35.8048 32.331C35.5733 32.4816 35.5077 32.7913 35.6583 33.0228L38.112 36.795ZM1.36666 1.59666C1.50041 2.07844 1.50026 2.07848 1.50017 2.07851C1.50022 2.07849 1.50019 2.0785 1.50029 2.07847C1.50049 2.07842 1.50093 2.0783 1.50161 2.07811C1.50296 2.07774 1.50527 2.07711 1.50851 2.07624C1.515 2.07448 1.52526 2.07174 1.53921 2.06808C1.56711 2.06076 1.60977 2.04978 1.66662 2.03576C1.78032 2.00773 1.95071 1.96755 2.17312 1.92018C2.61801 1.82543 3.27068 1.70199 4.09384 1.58941C5.74082 1.36416 8.06634 1.18294 10.7732 1.3603C16.1861 1.71496 23.1066 3.50125 29.1939 9.22185L29.8787 8.49313C23.5779 2.57183 16.4136 0.727716 10.8386 0.362437C8.05164 0.179828 5.65752 0.366247 3.95834 0.598637C3.10841 0.714877 2.43137 0.842755 1.96482 0.942119C1.73151 0.991806 1.55075 1.03438 1.42722 1.06484C1.36546 1.08007 1.31799 1.09227 1.28541 1.10082C1.26913 1.10509 1.25656 1.10845 1.24778 1.11082C1.2434 1.11201 1.23996 1.11295 1.23748 1.11363C1.23624 1.11397 1.23524 1.11424 1.23447 1.11445C1.23409 1.11456 1.23371 1.11466 1.23351 1.11472C1.23319 1.11481 1.23292 1.11488 1.36666 1.59666ZM29.1939 9.22185C35.2812 14.9424 37.4935 21.7388 38.1833 27.1192C38.5283 29.8099 38.4918 32.1422 38.3691 33.8C38.3078 34.6285 38.2251 35.2876 38.1582 35.7375C38.1247 35.9624 38.0952 36.135 38.0743 36.2502C38.0638 36.3078 38.0555 36.3511 38.0499 36.3794C38.0471 36.3935 38.045 36.4039 38.0437 36.4105C38.043 36.4138 38.0425 36.4161 38.0422 36.4175C38.0421 36.4182 38.042 36.4187 38.0419 36.4189C38.0419 36.419 38.0419 36.4189 38.0419 36.419C38.0419 36.4189 38.042 36.4187 38.5311 36.5223C39.0203 36.6259 39.0203 36.6257 39.0204 36.6253C39.0204 36.6251 39.0205 36.6247 39.0206 36.6243C39.0208 36.6236 39.021 36.6226 39.0212 36.6213C39.0218 36.6188 39.0225 36.6153 39.0234 36.6108C39.0252 36.6019 39.0278 36.5892 39.031 36.5727C39.0376 36.5396 39.0468 36.4915 39.0582 36.4289C39.0809 36.3037 39.1122 36.1207 39.1473 35.8847C39.2175 35.4129 39.3031 34.7292 39.3664 33.8737C39.4929 32.1634 39.5304 29.7623 39.1752 26.992C38.4647 21.4505 36.1796 14.4144 29.8787 8.49313L29.1939 9.22185Z" fill="#660FF2"/>
</symbol>

<symbol id="dropsvg"  viewBox="0 0 217 220" fill="none">
<path d="M216.064 110C216.033 80.836 204.641 52.8757 184.388 32.2536C164.135 11.6315 136.674 0.0320282 108.032 0H16.9286C12.4406 0.00582886 8.1381 1.82372 4.9646 5.05502C1.7911 8.28632 0.00571721 12.6673 0 17.237V110C4.26947e-07 139.174 11.3819 167.153 31.6419 187.782C51.9019 208.411 79.3803 220 108.032 220C136.684 220 164.163 208.411 184.423 187.782C204.682 167.153 216.064 139.174 216.064 110Z" fill="#E4E6FF" fill-opacity="0.4"/>
</symbol>

<symbol id="find"  viewBox="0 0 16 16" fill="none">
<path d="M14.3536 13.6462L11.2243 10.5175C12.1313 9.42856 12.5836 8.03187 12.487 6.61796C12.3905 5.20405 11.7526 3.88178 10.706 2.92623C9.65938 1.97068 8.28468 1.45541 6.86784 1.48761C5.451 1.51981 4.10112 2.097 3.09901 3.09911C2.0969 4.10122 1.51971 5.4511 1.48751 6.86794C1.45531 8.28477 1.97058 9.65948 2.92613 10.7061C3.88168 11.7527 5.20395 12.3906 6.61786 12.4871C8.03177 12.5837 9.42846 12.1314 10.5174 11.2244L13.6461 14.3537C13.6926 14.4002 13.7478 14.4371 13.8085 14.4622C13.8691 14.4873 13.9342 14.5003 13.9999 14.5003C14.0656 14.5003 14.1307 14.4873 14.1913 14.4622C14.252 14.4371 14.3072 14.4002 14.3536 14.3537C14.4001 14.3073 14.437 14.2521 14.4621 14.1914C14.4872 14.1307 14.5002 14.0657 14.5002 14C14.5002 13.9343 14.4872 13.8692 14.4621 13.8085C14.437 13.7479 14.4001 13.6927 14.3536 13.6462ZM2.4999 7C2.4999 6.10998 2.76382 5.23995 3.25829 4.49993C3.75275 3.75991 4.45556 3.18313 5.27782 2.84254C6.10009 2.50195 7.00489 2.41283 7.8778 2.58646C8.75072 2.7601 9.55254 3.18868 10.1819 3.81802C10.8112 4.44735 11.2398 5.24918 11.4134 6.12209C11.5871 6.99501 11.498 7.89981 11.1574 8.72207C10.8168 9.54434 10.24 10.2471 9.49996 10.7416C8.75994 11.2361 7.88991 11.5 6.9999 11.5C5.80683 11.4987 4.66301 11.0241 3.81938 10.1805C2.97575 9.33689 2.50122 8.19307 2.4999 7Z" fill="currentColor"/>
</symbol>

<symbol id="idiomo"  viewBox="0 0 426 233" fill="none">
<path d="M16.1383 140V52.1943H30.5523V140H16.1383ZM72.1753 141.201C64.2476 141.201 57.8814 138.318 53.0767 132.553C48.3121 126.747 45.9297 118.199 45.9297 106.908C45.9297 95.4966 48.3521 86.8682 53.1968 81.0225C58.0816 75.1768 64.5079 72.2539 72.4756 72.2539C75.8389 72.2539 78.7818 72.7144 81.3043 73.6353C83.8267 74.5161 85.9888 75.7173 87.7906 77.2388C89.6324 78.7603 91.1939 80.4619 92.4752 82.3438H93.1358C92.9356 81.1025 92.6954 79.3208 92.4151 76.9985C92.1749 74.6362 92.0547 72.4541 92.0547 70.4521V46.5488H106.229V140H95.1778L92.6553 130.931H92.0547C90.8536 132.853 89.3321 134.595 87.4903 136.156C85.6885 137.678 83.5264 138.899 81.004 139.82C78.5215 140.741 75.5787 141.201 72.1753 141.201ZM76.1392 129.73C82.1851 129.73 86.4493 127.988 88.9317 124.505C91.4141 121.021 92.6954 115.796 92.7754 108.83V106.968C92.7754 99.5205 91.5743 93.8149 89.1719 89.8511C86.7696 85.8472 82.3853 83.8452 76.0191 83.8452C70.9341 83.8452 67.0503 85.9072 64.3677 90.0312C61.7252 94.1152 60.4039 99.8208 60.4039 107.148C60.4039 114.475 61.7252 120.081 64.3677 123.964C67.0503 127.808 70.9742 129.73 76.1392 129.73ZM138.122 73.5151V140H124.008V73.5151H138.122ZM131.155 48.0503C133.317 48.0503 135.179 48.6309 136.741 49.792C138.342 50.9531 139.143 52.9551 139.143 55.7979C139.143 58.6006 138.342 60.6025 136.741 61.8037C135.179 62.9648 133.317 63.5454 131.155 63.5454C128.913 63.5454 127.011 62.9648 125.45 61.8037C123.928 60.6025 123.167 58.6006 123.167 55.7979C123.167 52.9551 123.928 50.9531 125.45 49.792C127.011 48.6309 128.913 48.0503 131.155 48.0503ZM214.759 106.607C214.759 112.133 214.039 117.038 212.597 121.322C211.156 125.606 209.054 129.229 206.291 132.192C203.528 135.115 200.205 137.357 196.321 138.919C192.437 140.44 188.053 141.201 183.168 141.201C178.604 141.201 174.42 140.44 170.616 138.919C166.812 137.357 163.509 135.115 160.707 132.192C157.944 129.229 155.802 125.606 154.28 121.322C152.759 117.038 151.998 112.133 151.998 106.607C151.998 99.2803 153.259 93.0742 155.782 87.9893C158.344 82.8643 161.988 78.9604 166.712 76.2778C171.437 73.5952 177.062 72.2539 183.589 72.2539C189.715 72.2539 195.12 73.5952 199.805 76.2778C204.489 78.9604 208.153 82.8643 210.795 87.9893C213.438 93.1143 214.759 99.3203 214.759 106.607ZM166.532 106.607C166.532 111.452 167.113 115.596 168.274 119.04C169.475 122.483 171.317 125.125 173.799 126.967C176.282 128.769 179.485 129.67 183.409 129.67C187.332 129.67 190.536 128.769 193.018 126.967C195.5 125.125 197.322 122.483 198.483 119.04C199.645 115.596 200.225 111.452 200.225 106.607C200.225 101.763 199.645 97.6587 198.483 94.2954C197.322 90.8921 195.5 88.3096 193.018 86.5479C190.536 84.7461 187.312 83.8452 183.349 83.8452C177.503 83.8452 173.239 85.8071 170.556 89.731C167.874 93.6548 166.532 99.2803 166.532 106.607ZM303.648 72.2539C311.096 72.2539 316.701 74.1758 320.465 78.0195C324.268 81.8633 326.17 88.0293 326.17 96.5176V140H312.057V99.04C312.057 93.9951 311.076 90.1914 309.114 87.6289C307.152 85.0664 304.169 83.7852 300.165 83.7852C294.56 83.7852 290.516 85.5869 288.033 89.1904C285.591 92.7539 284.37 97.939 284.37 104.746V140H270.256V99.04C270.256 95.6768 269.815 92.874 268.935 90.6318C268.094 88.3496 266.792 86.6479 265.031 85.5269C263.269 84.3657 261.047 83.7852 258.364 83.7852C254.48 83.7852 251.377 84.666 249.055 86.4277C246.773 88.1895 245.131 90.792 244.13 94.2354C243.129 97.6387 242.629 101.823 242.629 106.788V140H228.515V73.5151H239.506L241.488 82.4639H242.268C243.63 80.1416 245.311 78.2397 247.313 76.7583C249.355 75.2368 251.618 74.1157 254.1 73.395C256.582 72.6343 259.165 72.2539 261.848 72.2539C266.812 72.2539 270.997 73.1348 274.4 74.8965C277.803 76.6182 280.346 79.2607 282.027 82.8242H283.108C285.19 79.2207 288.093 76.5581 291.817 74.8364C295.54 73.1147 299.484 72.2539 303.648 72.2539ZM402.267 106.607C402.267 112.133 401.546 117.038 400.105 121.322C398.663 125.606 396.561 129.229 393.799 132.192C391.036 135.115 387.713 137.357 383.829 138.919C379.945 140.44 375.561 141.201 370.676 141.201C366.112 141.201 361.928 140.44 358.124 138.919C354.32 137.357 351.017 135.115 348.214 132.192C345.452 129.229 343.309 125.606 341.788 121.322C340.267 117.038 339.506 112.133 339.506 106.607C339.506 99.2803 340.767 93.0742 343.289 87.9893C345.852 82.8643 349.496 78.9604 354.22 76.2778C358.945 73.5952 364.57 72.2539 371.097 72.2539C377.223 72.2539 382.628 73.5952 387.312 76.2778C391.997 78.9604 395.661 82.8643 398.303 87.9893C400.946 93.1143 402.267 99.3203 402.267 106.607ZM354.04 106.607C354.04 111.452 354.621 115.596 355.782 119.04C356.983 122.483 358.825 125.125 361.307 126.967C363.789 128.769 366.993 129.67 370.916 129.67C374.84 129.67 378.043 128.769 380.526 126.967C383.008 125.125 384.83 122.483 385.991 119.04C387.152 115.596 387.733 111.452 387.733 106.607C387.733 101.763 387.152 97.6587 385.991 94.2954C384.83 90.8921 383.008 88.3096 380.526 86.5479C378.043 84.7461 374.82 83.8452 370.856 83.8452C365.011 83.8452 360.746 85.8071 358.064 89.731C355.381 93.6548 354.04 99.2803 354.04 106.607Z" fill="#444FDD"/>
<path d="M180.5 34.5C180.492 42.3213 177.433 49.8197 171.997 55.3502C166.56 60.8806 159.189 63.9914 151.5 64H127.044C125.84 63.9984 124.685 63.5109 123.833 62.6443C122.981 61.7778 122.502 60.6029 122.5 59.3774V34.5C122.5 26.6761 125.555 19.1727 130.994 13.6403C136.432 8.10803 143.809 5 151.5 5C159.191 5 166.568 8.10803 172.006 13.6403C177.445 19.1727 180.5 26.6761 180.5 34.5Z" fill="#444FDD"/>
<path d="M23.8134 211H16.8994V165.414H23.8134V211ZM45.712 177.953C49.8136 177.953 52.9093 178.861 54.9991 180.678C57.1085 182.494 58.1632 185.326 58.1632 189.174V211H53.2706L51.9523 206.4H51.7179C50.7999 207.572 49.8526 208.539 48.8761 209.301C47.8995 210.062 46.7667 210.629 45.4776 211C44.2081 211.391 42.6554 211.586 40.8194 211.586C38.8859 211.586 37.1573 211.234 35.6339 210.531C34.1105 209.809 32.9093 208.715 32.0304 207.25C31.1515 205.785 30.712 203.93 30.712 201.684C30.712 198.344 31.9523 195.834 34.4327 194.154C36.9327 192.475 40.7023 191.547 45.7413 191.371L51.3663 191.166V189.467C51.3663 187.221 50.839 185.619 49.7843 184.662C48.7491 183.705 47.2843 183.227 45.3898 183.227C43.7687 183.227 42.1964 183.461 40.673 183.93C39.1495 184.398 37.6651 184.975 36.2198 185.658L33.9933 180.795C35.5753 179.955 37.3722 179.271 39.3839 178.744C41.4151 178.217 43.5245 177.953 45.712 177.953ZM51.337 195.502L47.1476 195.648C43.7101 195.766 41.298 196.352 39.9112 197.406C38.5245 198.461 37.8312 199.906 37.8312 201.742C37.8312 203.344 38.3097 204.516 39.2667 205.258C40.2237 205.98 41.4835 206.342 43.046 206.342C45.4288 206.342 47.4015 205.668 48.964 204.32C50.546 202.953 51.337 200.951 51.337 198.314V195.502ZM84.0462 177.953C87.6985 177.953 90.5403 178.9 92.5716 180.795C94.6223 182.67 95.6477 185.688 95.6477 189.848V211H88.763V191.137C88.763 188.617 88.2454 186.732 87.2102 185.482C86.1751 184.213 84.5735 183.578 82.4055 183.578C79.261 183.578 77.0735 184.545 75.843 186.479C74.6321 188.412 74.0266 191.215 74.0266 194.887V211H67.1419V178.568H72.5032L73.47 182.963H73.8509C74.554 181.83 75.4231 180.902 76.4583 180.18C77.513 179.438 78.6848 178.881 79.9739 178.51C81.2825 178.139 82.6399 177.953 84.0462 177.953ZM115.525 211.586C111.658 211.586 108.552 210.18 106.208 207.367C103.884 204.535 102.722 200.365 102.722 194.857C102.722 189.291 103.904 185.082 106.267 182.23C108.65 179.379 111.785 177.953 115.671 177.953C117.312 177.953 118.747 178.178 119.978 178.627C121.208 179.057 122.263 179.643 123.142 180.385C124.04 181.127 124.802 181.957 125.427 182.875H125.749C125.652 182.27 125.535 181.4 125.398 180.268C125.281 179.115 125.222 178.051 125.222 177.074V165.414H132.136V211H126.746L125.515 206.576H125.222C124.636 207.514 123.894 208.363 122.996 209.125C122.117 209.867 121.062 210.463 119.831 210.912C118.621 211.361 117.185 211.586 115.525 211.586ZM117.458 205.99C120.408 205.99 122.488 205.141 123.699 203.441C124.91 201.742 125.535 199.193 125.574 195.795V194.887C125.574 191.254 124.988 188.471 123.816 186.537C122.644 184.584 120.505 183.607 117.4 183.607C114.919 183.607 113.025 184.613 111.716 186.625C110.427 188.617 109.783 191.4 109.783 194.975C109.783 198.549 110.427 201.283 111.716 203.178C113.025 205.053 114.939 205.99 117.458 205.99ZM184.986 194.711C184.986 197.406 184.635 199.799 183.931 201.889C183.228 203.979 182.203 205.746 180.855 207.191C179.508 208.617 177.886 209.711 175.992 210.473C174.097 211.215 171.959 211.586 169.576 211.586C167.349 211.586 165.308 211.215 163.453 210.473C161.597 209.711 159.986 208.617 158.619 207.191C157.271 205.746 156.226 203.979 155.484 201.889C154.742 199.799 154.371 197.406 154.371 194.711C154.371 191.137 154.986 188.109 156.217 185.629C157.467 183.129 159.244 181.225 161.549 179.916C163.853 178.607 166.597 177.953 169.781 177.953C172.769 177.953 175.406 178.607 177.691 179.916C179.976 181.225 181.763 183.129 183.052 185.629C184.342 188.129 184.986 191.156 184.986 194.711ZM161.461 194.711C161.461 197.074 161.744 199.096 162.31 200.775C162.896 202.455 163.795 203.744 165.006 204.643C166.217 205.521 167.779 205.961 169.693 205.961C171.607 205.961 173.17 205.521 174.381 204.643C175.592 203.744 176.48 202.455 177.047 200.775C177.613 199.096 177.896 197.074 177.896 194.711C177.896 192.348 177.613 190.346 177.047 188.705C176.48 187.045 175.592 185.785 174.381 184.926C173.17 184.047 171.597 183.607 169.664 183.607C166.812 183.607 164.732 184.564 163.424 186.479C162.115 188.393 161.461 191.137 161.461 194.711ZM208.437 183.812H200.557V211H193.672V183.812H188.369V180.502L193.672 178.48V176.225C193.672 173.471 194.101 171.283 194.961 169.662C195.84 168.041 197.09 166.879 198.711 166.176C200.351 165.453 202.305 165.092 204.57 165.092C206.055 165.092 207.412 165.219 208.642 165.473C209.873 165.707 210.908 165.98 211.748 166.293L209.961 171.508C209.297 171.293 208.555 171.098 207.734 170.922C206.914 170.727 206.035 170.629 205.098 170.629C203.535 170.629 202.383 171.117 201.641 172.094C200.918 173.07 200.557 174.496 200.557 176.371V178.568H208.437V183.812ZM235.125 178.568V211H228.24V178.568H235.125ZM231.727 166.146C232.781 166.146 233.69 166.43 234.451 166.996C235.233 167.562 235.623 168.539 235.623 169.926C235.623 171.293 235.233 172.27 234.451 172.855C233.69 173.422 232.781 173.705 231.727 173.705C230.633 173.705 229.705 173.422 228.944 172.855C228.201 172.27 227.83 171.293 227.83 169.926C227.83 168.539 228.201 167.562 228.944 166.996C229.705 166.43 230.633 166.146 231.727 166.146ZM255.237 211.586C251.37 211.586 248.264 210.18 245.92 207.367C243.596 204.535 242.434 200.365 242.434 194.857C242.434 189.291 243.616 185.082 245.979 182.23C248.362 179.379 251.496 177.953 255.383 177.953C257.024 177.953 258.459 178.178 259.69 178.627C260.92 179.057 261.975 179.643 262.854 180.385C263.752 181.127 264.514 181.957 265.139 182.875H265.461C265.364 182.27 265.246 181.4 265.11 180.268C264.993 179.115 264.934 178.051 264.934 177.074V165.414H271.848V211H266.457L265.227 206.576H264.934C264.348 207.514 263.606 208.363 262.707 209.125C261.829 209.867 260.774 210.463 259.543 210.912C258.332 211.361 256.897 211.586 255.237 211.586ZM257.17 205.99C260.12 205.99 262.2 205.141 263.411 203.441C264.621 201.742 265.246 199.193 265.286 195.795V194.887C265.286 191.254 264.7 188.471 263.528 186.537C262.356 184.584 260.217 183.607 257.112 183.607C254.631 183.607 252.737 184.613 251.428 186.625C250.139 188.617 249.495 191.4 249.495 194.975C249.495 198.549 250.139 201.283 251.428 203.178C252.737 205.053 254.651 205.99 257.17 205.99ZM287.946 178.568V211H281.061V178.568H287.946ZM284.547 166.146C285.602 166.146 286.51 166.43 287.272 166.996C288.053 167.562 288.444 168.539 288.444 169.926C288.444 171.293 288.053 172.27 287.272 172.855C286.51 173.422 285.602 173.705 284.547 173.705C283.454 173.705 282.526 173.422 281.764 172.855C281.022 172.27 280.651 171.293 280.651 169.926C280.651 168.539 281.022 167.562 281.764 166.996C282.526 166.43 283.454 166.146 284.547 166.146ZM325.87 194.711C325.87 197.406 325.518 199.799 324.815 201.889C324.112 203.979 323.087 205.746 321.739 207.191C320.391 208.617 318.77 209.711 316.876 210.473C314.981 211.215 312.842 211.586 310.46 211.586C308.233 211.586 306.192 211.215 304.337 210.473C302.481 209.711 300.87 208.617 299.503 207.191C298.155 205.746 297.11 203.979 296.368 201.889C295.626 199.799 295.255 197.406 295.255 194.711C295.255 191.137 295.87 188.109 297.1 185.629C298.35 183.129 300.128 181.225 302.432 179.916C304.737 178.607 307.481 177.953 310.665 177.953C313.653 177.953 316.29 178.607 318.575 179.916C320.86 181.225 322.647 183.129 323.936 185.629C325.225 188.129 325.87 191.156 325.87 194.711ZM302.344 194.711C302.344 197.074 302.628 199.096 303.194 200.775C303.78 202.455 304.678 203.744 305.889 204.643C307.1 205.521 308.663 205.961 310.577 205.961C312.491 205.961 314.053 205.521 315.264 204.643C316.475 203.744 317.364 202.455 317.93 200.775C318.497 199.096 318.78 197.074 318.78 194.711C318.78 192.348 318.497 190.346 317.93 188.705C317.364 187.045 316.475 185.785 315.264 184.926C314.053 184.047 312.481 183.607 310.548 183.607C307.696 183.607 305.616 184.564 304.307 186.479C302.999 188.393 302.344 191.137 302.344 194.711ZM369.77 177.953C373.403 177.953 376.138 178.891 377.974 180.766C379.829 182.641 380.757 185.648 380.757 189.789V211H373.872V191.02C373.872 188.559 373.393 186.703 372.436 185.453C371.479 184.203 370.024 183.578 368.071 183.578C365.337 183.578 363.364 184.457 362.153 186.215C360.962 187.953 360.366 190.482 360.366 193.803V211H353.481V191.02C353.481 189.379 353.266 188.012 352.837 186.918C352.427 185.805 351.792 184.975 350.932 184.428C350.073 183.861 348.989 183.578 347.681 183.578C345.786 183.578 344.272 184.008 343.14 184.867C342.026 185.727 341.225 186.996 340.737 188.676C340.249 190.336 340.005 192.377 340.005 194.799V211H333.12V178.568H338.481L339.448 182.934H339.829C340.493 181.801 341.313 180.873 342.29 180.15C343.286 179.408 344.39 178.861 345.6 178.51C346.811 178.139 348.071 177.953 349.38 177.953C351.802 177.953 353.843 178.383 355.503 179.242C357.163 180.082 358.403 181.371 359.224 183.109H359.751C360.766 181.352 362.182 180.053 363.999 179.213C365.815 178.373 367.739 177.953 369.77 177.953ZM411.503 201.742C411.503 203.871 410.985 205.668 409.95 207.133C408.915 208.598 407.401 209.711 405.409 210.473C403.437 211.215 401.015 211.586 398.144 211.586C395.878 211.586 393.925 211.42 392.284 211.088C390.663 210.775 389.13 210.287 387.685 209.623V203.676C389.228 204.398 390.956 205.023 392.87 205.551C394.804 206.078 396.63 206.342 398.349 206.342C400.614 206.342 402.245 205.99 403.241 205.287C404.237 204.564 404.735 203.607 404.735 202.416C404.735 201.713 404.53 201.088 404.12 200.541C403.73 199.975 402.987 199.398 401.894 198.812C400.819 198.207 399.237 197.484 397.148 196.645C395.097 195.824 393.368 195.004 391.962 194.184C390.556 193.363 389.491 192.377 388.769 191.225C388.046 190.053 387.685 188.559 387.685 186.742C387.685 183.871 388.817 181.693 391.083 180.209C393.368 178.705 396.386 177.953 400.136 177.953C402.128 177.953 404.003 178.158 405.761 178.568C407.538 178.959 409.276 179.535 410.976 180.297L408.808 185.482C407.343 184.838 405.868 184.311 404.384 183.9C402.919 183.471 401.425 183.256 399.901 183.256C398.124 183.256 396.767 183.529 395.829 184.076C394.911 184.623 394.452 185.404 394.452 186.42C394.452 187.182 394.677 187.826 395.126 188.354C395.575 188.881 396.347 189.408 397.44 189.936C398.554 190.463 400.097 191.117 402.069 191.898C404.003 192.641 405.673 193.422 407.079 194.242C408.505 195.043 409.599 196.029 410.36 197.201C411.122 198.373 411.503 199.887 411.503 201.742Z" fill="#444FDD"/>
</symbol>

<symbol id="logo"  viewBox="0 0 100 36" fill="none">
<path d="M41.7648 7.32203C41.7628 9.13074 41.0495 10.8648 39.7813 12.1437C38.5131 13.4227 36.7936 14.1421 35.0001 14.1441H29.2954C29.0144 14.1437 28.7449 14.031 28.5462 13.8306C28.3475 13.6302 28.2357 13.3585 28.2354 13.0751V7.32203C28.2354 5.51272 28.9481 3.77751 30.2167 2.49813C31.4853 1.21875 33.2059 0.5 35.0001 0.5C36.7942 0.5 38.5148 1.21875 39.7834 2.49813C41.0521 3.77751 41.7648 5.51272 41.7648 7.32203Z" fill="#660FF2"/>
<path d="M2.56885 30.7542V10.4272H6.84274V30.7542H2.56885Z" fill="#660FF2"/>
<path d="M16.1553 31.0323C14.4366 31.0323 13.0349 30.3557 11.9504 29.0024C10.875 27.6398 10.3373 25.6423 10.3373 23.0099C10.3373 20.3497 10.8842 18.3383 11.9779 16.9758C13.0717 15.6039 14.5009 14.918 16.2656 14.918C17.0009 14.918 17.6489 15.02 18.2095 15.2239C18.7702 15.4278 19.2527 15.7013 19.6572 16.0442C20.0708 16.3872 20.42 16.7718 20.705 17.1982H20.8428C20.7877 16.9016 20.7187 16.466 20.636 15.8913C20.5625 15.3073 20.5257 14.7095 20.5257 14.0977V9.12023H24.7445V30.7542H21.5184L20.705 28.7382H20.5257C20.2592 29.1646 19.9237 29.5539 19.5193 29.9061C19.1241 30.2491 18.6507 30.5225 18.0993 30.7264C17.5478 30.9303 16.8998 31.0323 16.1553 31.0323ZM17.6305 27.6537C18.7794 27.6537 19.5882 27.3108 20.057 26.6249C20.5349 25.9297 20.7877 24.8869 20.8152 23.4966V23.0377C20.8152 21.5269 20.5855 20.3729 20.1259 19.5757C19.6663 18.7693 18.8116 18.3661 17.5616 18.3661C16.6333 18.3661 15.9072 18.7693 15.3833 19.5757C14.8594 20.3821 14.5974 21.5454 14.5974 23.0655C14.5974 24.5857 14.8594 25.7304 15.3833 26.4997C15.9163 27.2691 16.6654 27.6537 17.6305 27.6537Z" fill="#660FF2"/>
<path d="M33.0368 15.21V30.7542H28.8319V15.21H33.0368ZM30.9412 9.12023C31.5662 9.12023 32.1039 9.26854 32.5543 9.56515C33.0047 9.85249 33.2298 10.3947 33.2298 11.1919C33.2298 11.9797 33.0047 12.5266 32.5543 12.8325C32.1039 13.1291 31.5662 13.2774 30.9412 13.2774C30.307 13.2774 29.7648 13.1291 29.3144 12.8325C28.8732 12.5266 28.6526 11.9797 28.6526 11.1919C28.6526 10.3947 28.8732 9.85249 29.3144 9.56515C29.7648 9.26854 30.307 9.12023 30.9412 9.12023Z" fill="#660FF2"/>
<path d="M51.1591 22.9543C51.1591 24.252 50.9845 25.4014 50.6352 26.4024C50.2952 27.4035 49.7943 28.2516 49.1325 28.9468C48.4799 29.6327 47.6895 30.1517 46.7612 30.504C45.842 30.8562 44.8034 31.0323 43.6454 31.0323C42.5608 31.0323 41.5636 30.8562 40.6536 30.504C39.7529 30.1517 38.967 29.6327 38.2961 28.9468C37.6343 28.2516 37.1196 27.4035 36.752 26.4024C36.3935 25.4014 36.2143 24.252 36.2143 22.9543C36.2143 21.2303 36.5176 19.7704 37.1242 18.5747C37.7308 17.379 38.5948 16.4706 39.7161 15.8496C40.8375 15.2285 42.1748 14.918 43.7281 14.918C45.1711 14.918 46.4487 15.2285 47.5608 15.8496C48.6821 16.4706 49.5599 17.379 50.1941 18.5747C50.8375 19.7704 51.1591 21.2303 51.1591 22.9543ZM40.502 22.9543C40.502 23.9739 40.6123 24.8313 40.8329 25.5265C41.0534 26.2217 41.3981 26.7454 41.8669 27.0976C42.3356 27.4498 42.9468 27.6259 43.7005 27.6259C44.445 27.6259 45.047 27.4498 45.5066 27.0976C45.9753 26.7454 46.3154 26.2217 46.5268 25.5265C46.7474 24.8313 46.8577 23.9739 46.8577 22.9543C46.8577 21.9254 46.7474 21.0727 46.5268 20.3961C46.3154 19.7101 45.9753 19.1957 45.5066 18.8528C45.0378 18.5098 44.4266 18.3383 43.6729 18.3383C42.5608 18.3383 41.752 18.723 41.2465 19.4923C40.7501 20.2617 40.502 21.4157 40.502 22.9543Z" fill="#660FF2"/>
<path d="M72.4248 14.918C74.1712 14.918 75.4901 15.3722 76.3816 16.2806C77.2824 17.1797 77.7327 18.6257 77.7327 20.6185V30.7542H73.514V21.6752C73.514 20.5629 73.3256 19.724 72.9487 19.1586C72.5719 18.5932 71.9883 18.3105 71.1978 18.3105C70.0857 18.3105 69.2952 18.7137 68.8265 19.5201C68.3577 20.3173 68.1234 21.462 68.1234 22.9543V30.7542H63.9184V21.6752C63.9184 20.9337 63.8357 20.3126 63.6702 19.8121C63.5048 19.3116 63.252 18.9362 62.912 18.6859C62.5719 18.4356 62.1353 18.3105 61.6022 18.3105C60.821 18.3105 60.2052 18.5098 59.7548 18.9084C59.3136 19.2977 58.9965 19.877 58.8035 20.6463C58.6197 21.4064 58.5278 22.3379 58.5278 23.4409V30.7542H54.3228V15.21H57.5351L58.1004 17.1982H58.3348C58.6473 16.6606 59.0379 16.225 59.5066 15.8913C59.9846 15.5576 60.5085 15.312 61.0783 15.1544C61.6482 14.9968 62.2272 14.918 62.8155 14.918C63.946 14.918 64.9019 15.1034 65.6831 15.4742C66.4736 15.8449 67.0802 16.4196 67.503 17.1982H67.8752C68.3348 16.4011 68.9827 15.8218 69.8191 15.4603C70.6647 15.0988 71.5333 14.918 72.4248 14.918Z" fill="#660FF2"/>
<path d="M95.7586 22.9543C95.7586 24.252 95.5839 25.4014 95.2346 26.4024C94.8946 27.4035 94.3937 28.2516 93.7319 28.9468C93.0793 29.6327 92.2889 30.1517 91.3606 30.504C90.4415 30.8562 89.4028 31.0323 88.2448 31.0323C87.1602 31.0323 86.163 30.8562 85.253 30.504C84.3523 30.1517 83.5665 29.6327 82.8955 28.9468C82.2337 28.2516 81.719 27.4035 81.3514 26.4024C80.9929 25.4014 80.8137 24.252 80.8137 22.9543C80.8137 21.2303 81.117 19.7704 81.7236 18.5747C82.3302 17.379 83.1942 16.4706 84.3155 15.8496C85.4369 15.2285 86.7742 14.918 88.3275 14.918C89.7705 14.918 91.0481 15.2285 92.1602 15.8496C93.2815 16.4706 94.1593 17.379 94.7935 18.5747C95.4369 19.7704 95.7586 21.2303 95.7586 22.9543ZM85.1014 22.9543C85.1014 23.9739 85.2117 24.8313 85.4323 25.5265C85.6528 26.2217 85.9975 26.7454 86.4663 27.0976C86.935 27.4498 87.5462 27.6259 88.2999 27.6259C89.0444 27.6259 89.6464 27.4498 90.106 27.0976C90.5747 26.7454 90.9148 26.2217 91.1262 25.5265C91.3468 24.8313 91.4571 23.9739 91.4571 22.9543C91.4571 21.9254 91.3468 21.0727 91.1262 20.3961C90.9148 19.7101 90.5747 19.1957 90.106 18.8528C89.6372 18.5098 89.026 18.3383 88.2723 18.3383C87.1602 18.3383 86.3514 18.723 85.8459 19.4923C85.3495 20.2617 85.1014 21.4157 85.1014 22.9543Z" fill="#660FF2"/>
</symbol>

<symbol id="plus"  viewBox="0 0 28 28">
<path d="M24.5 14C24.5 14.2321 24.4078 14.4546 24.2437 14.6187C24.0796 14.7828 23.8571 14.875 23.625 14.875H14.875V23.625C14.875 23.8571 14.7828 24.0796 14.6187 24.2437C14.4546 24.4078 14.2321 24.5 14 24.5C13.7679 24.5 13.5454 24.4078 13.3813 24.2437C13.2172 24.0796 13.125 23.8571 13.125 23.625V14.875H4.375C4.14294 14.875 3.92038 14.7828 3.75628 14.6187C3.59219 14.4546 3.5 14.2321 3.5 14C3.5 13.7679 3.59219 13.5454 3.75628 13.3813C3.92038 13.2172 4.14294 13.125 4.375 13.125H13.125V4.375C13.125 4.14294 13.2172 3.92038 13.3813 3.75628C13.5454 3.59219 13.7679 3.5 14 3.5C14.2321 3.5 14.4546 3.59219 14.6187 3.75628C14.7828 3.92038 14.875 4.14294 14.875 4.375V13.125H23.625C23.8571 13.125 24.0796 13.2172 24.2437 13.3813C24.4078 13.5454 24.5 13.7679 24.5 14Z" />
</symbol>


<symbol id="sound"  viewBox="0 0 15 16">
<path d="M0.9375 7.31386C0.938275 6.56818 1.23484 5.85326 1.76212 5.32598C2.2894 4.7987 3.00432 4.50214 3.75 4.50136H6.08203C6.25254 4.4914 9.22383 4.28222 12.0533 1.90917C12.19 1.79442 12.3565 1.72104 12.5334 1.69766C12.7103 1.67428 12.8902 1.70186 13.0519 1.77717C13.2137 1.85249 13.3506 1.9724 13.4466 2.12282C13.5426 2.27324 13.5936 2.44793 13.5938 2.62636V12.0014C13.5937 12.1798 13.5428 12.3546 13.4468 12.5051C13.3509 12.6556 13.214 12.7756 13.0522 12.851C12.8904 12.9264 12.7105 12.954 12.5335 12.9307C12.3566 12.9073 12.19 12.8339 12.0533 12.7191C9.84023 10.8629 7.5416 10.3309 6.5625 10.182V12.0406C6.5627 12.1951 6.52471 12.3472 6.45193 12.4835C6.37915 12.6198 6.27382 12.7359 6.14531 12.8217L5.50078 13.2512C5.3762 13.3343 5.23351 13.3864 5.08466 13.4031C4.93582 13.4197 4.78514 13.4005 4.64525 13.347C4.50537 13.2934 4.38034 13.2072 4.28065 13.0954C4.18096 12.9836 4.1095 12.8496 4.07227 12.7045L3.38262 10.1053C2.70602 10.0152 2.08513 9.68259 1.63538 9.16915C1.18564 8.65571 0.937643 7.99642 0.9375 7.31386ZM12.6562 11.9973V2.62636C10.1479 4.73046 7.58027 5.26308 6.5625 5.39433V9.23105C7.5791 9.36464 10.1461 9.89609 12.6562 11.9973ZM4.98047 12.466V12.4725L5.625 12.043V10.1264H4.35938L4.98047 12.466ZM3.75 9.18886H5.625V5.43886H3.75C3.25272 5.43886 2.77581 5.63641 2.42418 5.98804C2.07254 6.33967 1.875 6.81658 1.875 7.31386C1.875 7.81114 2.07254 8.28806 2.42418 8.63969C2.77581 8.99132 3.25272 9.18886 3.75 9.18886Z"/>
</symbol>


<symbol id="tv" viewBox="0 0 180 180" fill="none" >
<g clip-path="url(#clip0_110_16837)">
<path d="M137.596 0.0926844C136.045 0.259313 134.596 0.944449 133.484 2.03707L90 45.5054L67.2854 22.7887C66.6308 22.1349 65.8538 21.6164 64.9987 21.2627C64.1436 20.909 63.2272 20.7272 62.3018 20.7275C61.3764 20.7278 60.4601 20.9103 59.6053 21.2646C58.7504 21.6188 57.9738 22.1379 57.3196 22.7921C55.9985 24.1135 55.2567 25.9052 55.2574 27.7732C55.2577 28.6981 55.4403 29.6139 55.7947 30.4683C56.1492 31.3227 56.6685 32.099 57.3231 32.7528L80.0446 55.4488H20.7692C15.2609 55.4488 9.97815 57.6358 6.08317 61.5288C2.18818 65.4218 0 70.7018 0 76.2073L0 159.241C0 164.747 2.18818 170.027 6.08317 173.92C9.97815 177.813 15.2609 180 20.7692 180H159.231C164.739 180 170.022 177.813 173.917 173.92C177.812 170.027 180 164.747 180 159.241V76.2073C180 70.7018 177.812 65.4218 173.917 61.5288C170.022 57.6358 164.739 55.4488 159.231 55.4488H99.9485L143.439 11.9873C144.529 10.975 145.263 9.63883 145.533 8.17677C145.804 6.71471 145.595 5.20452 144.94 3.86991C144.284 2.53529 143.216 1.44723 141.893 0.766899C140.571 0.0865705 139.064 -0.149841 137.596 0.0926844ZM72.6923 69.2878C124.235 69.2878 131.538 69.4331 131.538 117.724C131.538 166.023 123.729 166.161 72.6923 166.161C21.42 166.161 13.8462 165.649 13.8462 117.724C13.8462 69.8137 21.42 69.2878 72.6923 69.2878ZM155.769 89.6173C161.765 89.6173 166.59 94.4333 166.59 100.426C166.593 101.847 166.315 103.254 165.772 104.568C165.229 105.881 164.432 107.074 163.427 108.079C162.421 109.084 161.227 109.881 159.913 110.423C158.599 110.966 157.191 111.244 155.769 111.241C154.347 111.244 152.939 110.966 151.625 110.423C150.311 109.881 149.117 109.084 148.112 108.079C147.106 107.074 146.309 105.881 145.767 104.568C145.224 103.254 144.946 101.847 144.948 100.426C144.946 99.0046 145.224 97.597 145.767 96.2836C146.309 94.9702 147.106 93.7768 148.112 92.772C149.117 91.7672 150.311 90.9706 151.625 90.4281C152.939 89.8855 154.347 89.6146 155.769 89.6173ZM155.769 117.295C161.765 117.295 166.59 122.111 166.59 128.104C166.593 129.525 166.315 130.932 165.772 132.246C165.229 133.559 164.432 134.752 163.427 135.757C162.421 136.762 161.227 137.559 159.913 138.101C158.599 138.644 157.191 138.922 155.769 138.919C154.347 138.922 152.939 138.644 151.625 138.101C150.311 137.559 149.117 136.762 148.112 135.757C147.106 134.752 146.309 133.559 145.767 132.246C145.224 130.932 144.946 129.525 144.948 128.104C144.946 126.683 145.224 125.275 145.767 123.962C146.309 122.648 147.106 121.455 148.112 120.45C149.117 119.445 150.311 118.649 151.625 118.106C152.939 117.564 154.347 117.293 155.769 117.295Z" fill="#DEE2E6"/>
</g>
<defs>
<clipPath id="clip0_110_16837">
<rect width="180" height="180" fill="white"/>
</clipPath>
</defs>
</symbol>


<symbol id="star" viewBox="0 0 20 20" >
<path d="M18.3203 8.93578L14.7969 12.0108L15.8524 16.5889C15.9082 16.8282 15.8923 17.0787 15.8065 17.309C15.7208 17.5394 15.5691 17.7393 15.3703 17.8839C15.1716 18.0284 14.9346 18.1112 14.6891 18.1218C14.4436 18.1324 14.2004 18.0704 13.9899 17.9436L9.99689 15.5217L6.01252 17.9436C5.80202 18.0704 5.55881 18.1324 5.31328 18.1218C5.06775 18.1112 4.83079 18.0284 4.63204 17.8839C4.4333 17.7393 4.28157 17.5394 4.19584 17.309C4.1101 17.0787 4.09416 16.8282 4.15002 16.5889L5.20392 12.0155L1.6797 8.93578C1.49331 8.77502 1.35852 8.5628 1.29225 8.32574C1.22598 8.08868 1.23117 7.83733 1.30718 7.60321C1.38319 7.36909 1.52663 7.16262 1.71952 7.0097C1.9124 6.85678 2.14614 6.76421 2.39142 6.74359L7.03674 6.34125L8.85002 2.01625C8.94471 1.78931 9.10443 1.59546 9.30907 1.45911C9.51371 1.32276 9.75411 1.25 10 1.25C10.2459 1.25 10.4863 1.32276 10.691 1.45911C10.8956 1.59546 11.0553 1.78931 11.15 2.01625L12.9688 6.34125L17.6125 6.74359C17.8578 6.76421 18.0915 6.85678 18.2844 7.0097C18.4773 7.16262 18.6207 7.36909 18.6968 7.60321C18.7728 7.83733 18.778 8.08868 18.7117 8.32574C18.6454 8.5628 18.5106 8.77502 18.3242 8.93578H18.3203Z"/>
</symbol>

</svg>
